# xmcd
#
# Track frame offsets: 
#        150
#        18230
#        37834
#        56868
#        75498
#        93456
#        108875
#        126873
#        145233
#        171114
#        194057
#        214549
#        233248
#        248266
#        264616
#        286699
#        305649
#        321337
#
# Disc length: 4576 seconds
#
# Revision: 0
# Processed by: cddbd v1.5.2PL0 Copyright (c) Steve Scherf et al.
# Submitted via: ExactAudioCopy v0.99pb4
#
DISCID=f511de12
DTITLE=Randy Crawford - the very best of
DYEAR=1900
DGENRE=Bluegrass
TTITLE0=Street life (feat. the Crusaders)
TTITLE1=One day i´ll fly away
TTITLE2=Rainy night in Georgia
TTITLE3=Almaz
TTITLE4=You might need somebody
TTITLE5=Secret Combination
TTITLE6=Tender falls the rain
TTITLE7=The old heart of mine
TTITLE8=Imagine
TTITLE9=Knockin´on heaven´s door
TTITLE10=Who´s crying now
TTITLE11=Same old story (Same old song)
TTITLE12=One hello
TTITLE13=I´ve never been to me
TTITLE14=I stand accused
TTITLE15=Endlessly
TTITLE16=You bring the sun out
TTITLE17=Every thing must change
EXTD=
EXTT0=
EXTT1=
EXTT2=
EXTT3=
EXTT4=
EXTT5=
EXTT6=
EXTT7=
EXTT8=
EXTT9=
EXTT10=
EXTT11=
EXTT12=
EXTT13=
EXTT14=
EXTT15=
EXTT16=
EXTT17=
PLAYORDER=
